<svg xmlns="http://www.w3.org/2000/svg" xmlns:xlink="http://www.w3.org/1999/xlink" width="413.7" height="650.6" viewBox="0 0 413.7 650.6"><g opacity=".85"><path fill="#9ACCC8" d="M4.7 525.4l361.7-375.6 8 7.8L12.7 533.2"/><path fill="#F7D8C9" stroke="#F2D2C2" stroke-linecap="round" stroke-linejoin="round" stroke-miterlimit="10" d="M230.9 316.2c4.5 4.8 29.3 28 33 31.3s12.5 9.3 15.7 18.4c3.2 9.1 13.6 17.8 16.2 20.9 0 0-37.8 10.2-48.4-5.6-10.6-15.8-5.4-32.7-22.4-48.2-12.9-11.8-28-16.1-46.5-24.8-11.3-5.3-17.2-13-17.9-43.4-.7-30.4-7.3-43.9-11.2-50.8-3.9-6.9 3.5-24.6 2.1-32-1.4-7.4-10-17.9-17.2-13-7.2 4.9-45.3 24.4-61.8 25.5-16.6 1.1-37 3.5-33.1 18.5 3.9 15 10.4 25 23.3 20.5s42.3-26.4 51.4-29.6c9.1-3.2 10.6 7.7 11.7 16.1 1.1 8.4 6.9 49.6-4.4 73.1-11.3 23.5 115.7 135.7 115.7 135.7l84.6-38.4s-15.3-15.9-22.7-30.8c-7.4-14.9-12.8-16.4-23.4-24.1s-7.6-10.3-17.4-16.5c-9.8-6.3-20-11-24-13.2"/><path fill="#F7D8C9" stroke="#F2D2C2" stroke-linecap="round" stroke-linejoin="round" stroke-miterlimit="10" d="M298.8 359.7c-7.4-14.9-12.8-16.4-23.4-24.1-10.6-7.7-7.6-10.3-17.4-16.5-9.8-6.3-20-11-24-13.2-1.6-1.1-3-2.3-3.8-3.8-2.1-3.9-4.3-5.7-6-6.9-1.8-1.2-5.5-3.3-4.7-5.9.7-2.6-2.6-1.6-2.4 0 .2 1.6 0 2.2-.2 2-.2-.1-4.7-6-6.1-7.3s-3.2-.7-2.1 1.5 2.2 3.6 3.3 4.1c0 0-3-1.4-5.9-1.9-3.8-.7-5 1-3.5 1.8s4.2 1.4 5.5 1.7c1.3.3.7.7-1.6.5-2.3-.2-5.1.2-5.5 1.3-.5 1.1.8 2.1 2.1 2.2 1.3.1 5.1-.2 7.7 1.5 2.6 1.7 4.5 4.3 5.1 5.9.4 1.2 1 3-.4 2s-3.2-2.8-4.6-3.6c-1.3-.7-6.6-.5-3.9 2.6s5.1 2.8 6.7 4.1c1.6 1.3 2.7 2.9 4.7 3.4 1.9.5 7.8.5 12.5 5 4.5 4.8 29.3 28 33 31.3 3.7 3.4 12.5 9.3 15.7 18.4 3.2 9.1 13.6 17.8 16.2 20.9 0 0-37.8 10.2-48.4-5.6-10.6-15.8-5.4-32.7-22.4-48.2-12.9-11.8-28-16.1-46.5-24.8-11.3-5.3-17.2-13-17.9-43.4-.7-30.4-7.3-43.9-11.2-50.8-3.9-6.9 3.5-24.6 2.1-32-1.4-7.4-10-17.9-17.2-13-7.2 4.9-45.3 24.4-61.8 25.5-16.6 1.1-37 3.5-33.1 18.5 3.9 15 10.4 25 23.3 20.5s42.3-26.4 51.4-29.6 10.6 7.7 11.7 16.1c1.1 8.4 6.9 49.6-4.4 73.1-11.3 23.5 115.7 135.7 115.7 135.7l84.6-38.4c-.3.3-15.5-15.7-22.9-30.6z"/><image overflow="visible" width="357" height="335" xlink:href="9971D1C10FA30F66.png" transform="translate(1.66 131)" opacity=".1"/><path fill="#FC8C54" d="M151.4 182.2c-1.4-7.4-10-17.9-17.2-13-7.2 4.9-45.3 24.4-61.8 25.5s-37 3.5-33.1 18.5 10.4 25 23.3 20.5 42.3-26.4 51.4-29.6c3.5-1.3 6.2 0 7.9 2l1.3-14.3 14.7-5.9 13.5-3.7z"/><path fill="#FF5D00" d="M143.1 189.6c2.7 0 5.4 3.2 6.8 6.5 1.1-5.4 2.1-10.7 1.5-13.9-1.4-7.4-10-17.9-17.2-13-1.8 1.2-5.5 3.3-10.2 5.8-7.8 12.5-2.2 31.2-2.2 31.2 3.2-20 17.4-16.6 21.3-16.6z"/><path fill="#FFDFCC" stroke="#F2D2C2" stroke-linecap="round" stroke-linejoin="round" stroke-miterlimit="10" d="M243.3 386.2c-.9-1.3-14.2-36.9-15.2-38-4-4.9-24.9-10.6-32.9-14.6-34.9-17.1-50.8-17.9-63.7-37.8-13-19.9-8.8-22.3-14.5-30.8-5.7-8.6 9.6-29.8-2.2-62.2s2.2-52.9 6.5-51.6c4.3 1.2 13.4 6.1 15.6-14.2 2.3-20.3 13-25.4 29.3-33.6s41-9.3 42-25.3-.9-50.2-22.7-39-22.5 18-31.3 20.2c-8.8 2.2-19 9.7-30 24s-31.1 48.2-31.9 84-9.8 79.8-13.1 91.6c-3.3 11.8-5.8 28.6 10.6 53s21.4 80.4 139.2 107.9"/><image overflow="visible" width="241" height="457" xlink:href="9971D1C10FA30F6A.png" transform="translate(39.66)" opacity=".2"/><path fill="#FFC18B" d="M236.5 349.9c-15.8 1-46.2 28.7-53.4 56.6-4.7-1.6-13.2-5.7-13.2-5.7s21.7-51.8 13-72c0 0 7.6 2.1 14.1.6 8.1-1.8 19-1.3 28.1 3.7-.2 0 9.7 8 11.4 16.8zM294.4 387.1c-1.2.3-5.4 1.1-8.4 1.7l-10.7 26.1 42-19.4-22.9-8.4z"/><path fill="#FFDFCB" d="M375.8 405.7c1 8.2.7 15.8-.7 22.3-1.1 5.5-.1 7.7 1.5 10.8 1.6 3.1.5 5.2-1.7 5.6s-3.8.7-3.7 2.1-1.2 2.8-2.7 2.7c-1.4-.1-.9.2-.9 1.5 0 1.7-3.5 1.5-4.7 4.1-1.1 2.4-3.7 6.7-21.5-6.5-17.7-13.2-27.6 7.4-29.9 14.2s-8.4 20.7-28.5 8.8c-20-11.9-53.7-29.9-65.8-30.7-12.1-.8-20-8.3-26.7-12.5-6.6-4.2-24.9-17.3-42.9-11.5l2.9-11.5s7.4-2.8 33.1 2c19.2 3.5 43.3 15.5 57.9 15 13.6-.4 115.2-22.9 115.2-22.9l19.1 6.5z"/><path fill="#FFDFCB" stroke="#F2D2C2" stroke-miterlimit="10" d="M150.5 405.3s7.4-2.8 33.1 2c19.2 3.5 43.3 15.5 57.9 15 13.6-.4 115.2-22.9 115.2-22.9l19.1 6.3c1 8.2.7 15.8-.7 22.3-1.1 5.5-.1 7.7 1.5 10.8 1.6 3.1.5 5.2-1.7 5.6s-3.8.7-3.7 2.1-1.2 2.8-2.7 2.7c-1.4-.1-.9.2-.9 1.5 0 1.7-3.5 1.5-4.7 4.1-1.1 2.4-3.7 6.7-21.5-6.5-17.7-13.2-27.6 7.4-29.9 14.2s-8.4 20.7-28.5 8.8"/><path fill="#FFDFCB" d="M151.1 405.1c-1.9.5-5.2 2-9.6.3-4.4-1.7-9.8-1.2-11.7.3-1.8 1.4-5.8 1.8-6.8 2-1 .2-3 2.1.1 2.4 3.1.3 6.8.6 8 0 1.1-.7 1.6.2.9 1.2s-7.1 2.9-9.2 2.6c-2.1-.3-6.8-1.8-8.8-1.4s-3.6 1.7-1.3 2.3c2.3.6 7.3 1.5 7.8 1.6.5.1-4.5.5-6.2.7-1.8.3-1.7 2.9.2 2.7s5.4-.5 5.4-.5-2 .2-2.2.9c-.2.7 2.3 1.3 4.1 1.1 1.8-.3.6-.3 1.6.2 1.1.5 8 2.6 14.8-.9 6.7-3.5 19.2-8.4 32.7-2.9-.1.1-6.8-15.8-19.8-12.6z"/><image overflow="visible" width="339" height="150" xlink:href="9971D1C10FA30F6D.png" transform="translate(74.66 363)" opacity=".25"/><path fill="#FF5D00" d="M376.9 408.7c3.4-15.6-24.6-44.3-61.1-23.5-29 16.6-40.6 24.6-55.1 7-15.6-19.1-20.3-4.1-40.6-23.2-10.6-10-40.5.3-9.8 30.3 31.3 30.6 11 35.8 33 44.5 27.1 10.7 19.4-12.2 40.8-1.5s23.4 7.8 29 .1c5.7-7.7 8-11.7 14.9-7.4 7 4.1 41.9 5.4 48.9-26.3z"/><image overflow="visible" width="254" height="158" xlink:href="9971D1C10FA30F6E.png" transform="translate(159.66 328)" opacity=".5"/><path fill="#FC8C54" d="M121.5 151c4.3 1.2 13.4 6.1 15.6-14.2 2.3-20.3 13-25.4 29.3-33.6s41-9.3 42-25.3-.9-50.2-22.7-39-22.5 18-31.3 20.2c-8.8 2.2-19 9.7-30 24-7.3 9.4-18.4 27.3-25.4 48.6"/><path fill="#FF5D00" d="M104.8 116.7c-1.2 2.8-2.4 5.6-3.5 8.6 0 .1-.1.2-.1.4-.2.4-.3.8-.5 1.3-.1.2-.1.4-.2.6 0 .1-.1.1-.1.2-.7 1.9-1.3 3.8-1.9 5.7.5 6.2 3.7 10.2 9.3 15.3 3.8 3.4 6.9 4.6 9.5 5 1.6-2 3.2-3 4.2-2.7.1 0 .2.1.3.1.1 0 .2.1.4.1.1 0 .2.1.4.1.7.2 1.4.5 2.2.7 4.6 1.2 10.5.8 12.3-15.2l-32.3-20.2z"/><path fill="#FFC18B" d="M317.9 451.1s1.2-7.1-3.9-9.8l-.9 1.1s4.4 1.6 4.4 9.2l.4-.5z"/><path fill="#2C2C2E" d="M348.5 378.3c-3.9.4 6.4 7.2-5.3 40.4l3.7-1.2s21.5-41.4 1.6-39.2z"/><path fill="#424244" d="M349.4 378.1c-4.5.6 6.5 7.5-5.2 40.7l3.7-1.2c0-.1 21.3-42.3 1.5-39.5z"/><ellipse transform="rotate(-12 340.702 427.46)" fill="#C9DBE6" cx="340.7" cy="427.5" rx="15" ry="12"/><ellipse transform="rotate(-12 341.037 427.75)" cx="341.1" cy="427.8" rx="14.3" ry="11.7"/><ellipse transform="rotate(-12 341.39 427.7)" fill="#2C2C2E" cx="341.4" cy="427.8" rx="12.8" ry="10.2"/><path fill="none" stroke="#2C2C2E" stroke-miterlimit="10" d="M340.8 435.2s14.1 66.5-37 66.5c-36.9 0-60.8 24.2-47.1 57.2 14.7 35.7 12.6 78.6-74.4 91.3"/><ellipse transform="rotate(-12 341.18 427.575)" fill="#C9DBE6" cx="341.2" cy="427.6" rx="10.9" ry="8.6"/><path fill="none" stroke="#3F1009" stroke-width="14" stroke-linecap="round" stroke-linejoin="round" stroke-miterlimit="10" d="M368.6 157.2c17.9-31.1-28.3 51.7-108.8 79.7C125.5 283.6 30.2 416.3 8.7 529.4M7 528.8l15.8-160.9M359.2 256.5l12-104.7"/><circle fill="#DFE5C9" stroke="#00B7CF" stroke-width="2" stroke-miterlimit="10" cx="371.1" cy="151.5" r="13.3"/><circle fill="#FFC18B" stroke="#E09A65" stroke-width="2" stroke-miterlimit="10" cx="22.8" cy="365.1" r="13.3"/><ellipse transform="rotate(-90 359.45 256.022)" fill="#00B7CF" stroke="#009EAA" stroke-width="2" stroke-miterlimit="10" cx="359.5" cy="256" rx="13.3" ry="13.3"/></g></svg>